# xmcd
#
# Track frame offsets:
#	183
#	18018
#	34143
#	66003
#	87533
#	116218
#	151488
#	166913
#	184200
#
# Disc length: 2577 seconds
#
# Revision: 53
# Processed by: cddbd v1.5.2PL0 Copyright (c) Steve Scherf et al.
# Submitted via: Jack! The Knife 18 Bulletproof
#
DISCID=700a0f09
DTITLE=Pink Floyd - The Dark Side Of The Moon
DYEAR=1973
DGENRE=Rock
TTITLE0=Speak To Me - Breathe
TTITLE1=On The Run
TTITLE2=Time
TTITLE3=The Great Gig In The Sky
TTITLE4=Money
TTITLE5=Us And Them
TTITLE6=Any Colour You Like
TTITLE7=Brain Damage
TTITLE8=Eclipse
EXTD=Pink Floyd
EXTT0=Mason, Waters, Gilmour, Wright
EXTT1=Gilmour, Waters
EXTT2=Mason, Waters, Wright, Gilmour  
EXTT3=Wright, Torry
EXTT4=Roger Waters
EXTT5=Waters, Wright
EXTT6=Gilmour, Mason, Wright
EXTT7=Roger Waters
EXTT8=Roger Waters
PLAYORDER=
